# xmcd
# 
# Track frame offsets:
#     150
#     17646
#     33248
#     48246
#     64984
#     79787
#     95117
#     111360
#     127826
#     143529
#     159423
#     173179
#     189013
#     203156
#     219937
#     233963
#     253568
#     267250
#     280593
#     295685
#     308551
# 
# Disc length: 4331
# 
# Revision: 3
# Processed by: cddbd v1.5.2PL0 Copyright (c) Steve Scherf et al.
# Submitted via: BonkEnc v1.0.15
# 
DISCID=1910e915
DTITLE=Various Artist - Bääärenstark - Hits 2005 [CD 2)
DYEAR=2005
DGENRE=Pop-Deutsch
TTITLE0=Wolfgang Petry - Ich bin ene kölsche Jung
TTITLE1=Andrea Berg - Ich hab nie wieder im Regen getanzt
TTITLE2=Hansi Hinterseer - Beim Alpenglühn und Edelweiß
TTITLE3=Nicole - Engel ohne Flügel
TTITLE4=Bernhard Brink - Geh doch
TTITLE5=Geschwister Hofmann - Wehrlos
TTITLE6=Seer - Sun, Wind and Regen
TTITLE7=Tom Astor - Winter in Canada
TTITLE8=Edwina De Pooter - Das geht auch noch über "30"
TTITLE9=Andreas Zaron - Meine rosa Brille
TTITLE10=July Klein - Neue Liebe braucht mein Herz
TTITLE11=Anke Lautenbach - Mach dich stark
TTITLE12=Jens Bogner - Es gibt doch keinen Grund zu lügen
TTITLE13=Viola Jahn - Es war doch nur ein Mal
TTITLE14=Danny Malando - In einer kleinen Konditorei
TTITLE15=Roger Whittaker - So weit, so gut
TTITLE16=Paloma - It's a Wonderful Life
TTITLE17=Feldberger - Edeltraud
TTITLE18=EAV - God Bless America
TTITLE19=De Randfichten - Jetzt geht die Party richtig los
TTITLE20=Wolfgang Petry - Der kölsche Hitmix
EXTD=YEAR: 2005
EXTT0=
EXTT1=
EXTT2=
EXTT3=
EXTT4=
EXTT5=
EXTT6=
EXTT7=
EXTT8=
EXTT9=
EXTT10=
EXTT11=
EXTT12=
EXTT13=
EXTT14=
EXTT15=
EXTT16=
EXTT17=
EXTT18=
EXTT19=
EXTT20=
PLAYORDER=
